<svg width="99" height="20" viewBox="0 0 99 20" fill="none" xmlns="http://www.w3.org/2000/svg">
<g id="Amazon Pay">
<path fill-rule="evenodd" clip-rule="evenodd" d="M8.15947 11.4888C8.09757 11.5425 8.02058 11.5758 7.93905 11.584C7.85752 11.5922 7.77544 11.5751 7.70403 11.5349C7.06437 11.0027 6.94838 10.757 6.6004 10.2504C5.54112 11.3285 4.79228 11.6509 3.42255 11.6509C1.80036 11.6509 0.538086 10.6496 0.538086 8.647C0.538086 7.08281 1.39097 6.02011 2.58501 5.49814C3.63065 5.03929 5.09079 4.95571 6.20807 4.82948V4.58044C6.20807 4.12159 6.24389 3.57915 5.97438 3.18171C5.73898 2.8269 5.29207 2.68191 4.89292 2.68191C4.15773 2.68191 3.50272 3.05889 3.34238 3.83843C3.33249 3.92687 3.2937 4.00958 3.23202 4.07373C3.17034 4.13788 3.08921 4.17989 3.00122 4.19323L1.14875 3.99024C1.10301 3.98369 1.05908 3.96792 1.01961 3.94387C0.980153 3.91983 0.945987 3.88802 0.919189 3.85038C0.892391 3.81273 0.87352 3.77004 0.863721 3.72488C0.853922 3.67972 0.853398 3.63305 0.862183 3.58768C1.29033 1.32241 3.33726 0.638398 5.17096 0.638398C6.10914 0.638398 7.33388 0.887441 8.07077 1.59704C9.00724 2.47381 8.92366 3.64397 8.92366 4.91477V7.91522C8.92366 8.81928 9.29893 9.21502 9.65203 9.70117C9.77484 9.87174 9.80213 10.085 9.65203 10.2129C9.25799 10.5421 8.55862 11.1494 8.17483 11.4922L8.15947 11.4888ZM6.2166 6.79112C6.2166 7.54166 6.23366 8.16768 5.85668 8.83805C5.54964 9.38048 5.0635 9.71481 4.52106 9.71481C3.78246 9.71481 3.3509 9.15191 3.3509 8.31608C3.3509 6.67513 4.82299 6.37662 6.2166 6.37662V6.79453V6.79112Z" fill="#232F3E"/>
<path fill-rule="evenodd" clip-rule="evenodd" d="M13.4371 11.4137H11.5113C11.4249 11.4093 11.3429 11.3739 11.2803 11.3141C11.2177 11.2543 11.1786 11.1741 11.1702 11.0879V1.19446C11.1733 1.09914 11.2136 1.00882 11.2824 0.942836C11.3513 0.876847 11.4432 0.840427 11.5386 0.841369H13.3348C13.4237 0.846273 13.5076 0.88379 13.5706 0.946737C13.6335 1.00968 13.671 1.09364 13.6759 1.18252V2.47379H13.7118C14.1792 1.22346 15.061 0.641794 16.2483 0.641794C17.4355 0.641794 18.2082 1.22346 18.7489 2.47379C18.9262 2.0012 19.226 1.58428 19.6176 1.2658C20.0092 0.947329 20.4785 0.738762 20.9773 0.661502C21.4761 0.584241 21.9865 0.641067 22.4561 0.826151C22.9257 1.01124 23.3376 1.31791 23.6496 1.71472C24.262 2.54714 24.1357 3.76165 24.1357 4.81582V11.0572C24.1349 11.1051 24.1245 11.1523 24.1053 11.1962C24.0861 11.24 24.0585 11.2797 24.0239 11.3128C23.9894 11.3459 23.9486 11.3719 23.904 11.3892C23.8594 11.4065 23.8117 11.4149 23.7639 11.4137H21.8381C21.7468 11.409 21.6607 11.3697 21.5974 11.3038C21.534 11.2379 21.4981 11.1504 21.4969 11.0589V5.8154C21.4969 5.39919 21.5327 4.35867 21.4423 3.96293C21.299 3.29768 20.8675 3.11005 20.3097 3.11005C20.0596 3.11769 19.8172 3.19852 19.6125 3.34254C19.4079 3.48655 19.2499 3.68743 19.1583 3.92029C18.9604 4.42179 18.9775 5.2525 18.9775 5.8154V11.0572C18.9766 11.105 18.9663 11.152 18.9472 11.1958C18.9282 11.2395 18.9006 11.2791 18.8663 11.3122C18.8319 11.3453 18.7913 11.3713 18.7469 11.3887C18.7025 11.4061 18.6551 11.4147 18.6073 11.4137H16.6764C16.5853 11.4086 16.4994 11.3692 16.4361 11.3033C16.3729 11.2375 16.3368 11.1502 16.3352 11.0589V5.8154C16.3352 4.71177 16.5058 3.08617 15.1412 3.08617C13.7766 3.08617 13.8107 4.66742 13.8107 5.8154V11.0572C13.8098 11.1051 13.7995 11.1523 13.7803 11.1962C13.7611 11.24 13.7334 11.2797 13.6989 11.3128C13.6643 11.3459 13.6236 11.3719 13.5789 11.3892C13.5343 11.4065 13.4867 11.4149 13.4388 11.4137" fill="#232F3E"/>
<path fill-rule="evenodd" clip-rule="evenodd" d="M34.9077 9.69435C34.5546 9.20821 34.1793 8.81247 34.1793 7.91011V4.90795C34.1793 3.63545 34.2697 2.46699 33.3264 1.59023C32.5878 0.880624 31.3631 0.631582 30.4266 0.631582C28.5929 0.631582 26.546 1.31389 26.1161 3.58086C26.1071 3.62648 26.1075 3.67345 26.1173 3.71891C26.1271 3.76437 26.146 3.80735 26.173 3.84521C26.2 3.88307 26.2345 3.91501 26.2743 3.93908C26.3141 3.96314 26.3583 3.97881 26.4044 3.98513L28.2722 4.18641C28.3601 4.1728 28.4411 4.13071 28.5027 4.06661C28.5643 4.00251 28.6032 3.91995 28.6134 3.83161C28.7754 3.05207 29.427 2.6751 30.1622 2.6751C30.5597 2.6751 31.0151 2.82179 31.2437 3.17659C31.5149 3.57233 31.4791 4.11477 31.4791 4.57362V4.81755C30.3618 4.94207 28.9 5.02565 27.856 5.4845C26.6483 6.00647 25.8006 7.06917 25.8006 8.63507C25.8006 10.6359 27.0628 11.6372 28.685 11.6372C30.0497 11.6372 30.8036 11.3148 31.8612 10.2368C32.2126 10.7485 32.3269 10.989 32.9665 11.5212C33.0379 11.5612 33.1198 11.5784 33.2012 11.5704C33.2826 11.5625 33.3596 11.5299 33.422 11.4769C33.8058 11.1357 34.5051 10.5268 34.8992 10.1976C35.0646 10.0799 35.0373 9.87175 34.9077 9.69435ZM31.1209 8.82952C30.8155 9.37025 30.3277 9.70459 29.787 9.70459C29.0484 9.70459 28.6168 9.14168 28.6168 8.30756C28.6168 6.6649 30.0889 6.36809 31.4825 6.36809V6.7843C31.4825 7.53655 31.4961 8.16086 31.1209 8.82952Z" fill="#232F3E"/>
<path fill-rule="evenodd" clip-rule="evenodd" d="M36.5384 2.57444V1.16036C36.5362 1.11266 36.544 1.06502 36.5613 1.02053C36.5787 0.976046 36.6052 0.935694 36.6391 0.90209C36.673 0.868486 36.7136 0.842379 36.7583 0.825456C36.8029 0.808534 36.8506 0.801173 36.8983 0.803851H43.2318C43.2795 0.802237 43.327 0.81029 43.3714 0.827525C43.4159 0.84476 43.4564 0.87082 43.4905 0.904134C43.5246 0.937448 43.5516 0.977326 43.5699 1.02136C43.5882 1.0654 43.5974 1.11268 43.5969 1.16036V2.37316C43.5969 2.57615 43.4263 2.84225 43.121 3.26187L39.8391 7.94592C41.057 7.91692 42.3448 8.09944 43.4519 8.72205C43.5523 8.7756 43.6368 8.85479 43.6967 8.95156C43.7566 9.04833 43.7899 9.15924 43.793 9.27301V10.7877C43.793 10.9958 43.5662 11.2364 43.3257 11.1118C42.2903 10.5796 41.1425 10.303 39.9783 10.3051C38.8142 10.3072 37.6674 10.5879 36.6339 11.1238C36.4139 11.2415 36.1836 11.0044 36.1836 10.7963V9.35489C36.1635 9.01512 36.2455 8.6771 36.419 8.3843L40.2212 2.92583H36.9051C36.8574 2.92768 36.8097 2.91981 36.765 2.90268C36.7204 2.88555 36.6797 2.85952 36.6454 2.82619C36.6111 2.79285 36.5839 2.75289 36.5655 2.70873C36.5471 2.66458 36.5379 2.61715 36.5384 2.56933" fill="#232F3E"/>
<path fill-rule="evenodd" clip-rule="evenodd" d="M49.0656 2.64606C47.6447 2.64606 47.5543 4.58041 47.5543 5.78809C47.5543 6.99578 47.5372 9.57491 49.0468 9.57491C50.5564 9.57491 50.6127 7.49387 50.6127 6.22477C50.6127 5.39235 50.5769 4.39277 50.3244 3.603C50.1078 2.92069 49.6762 2.64606 49.0656 2.64606ZM49.0468 0.626426C51.9074 0.626426 53.4545 3.08274 53.4545 6.2043C53.4545 9.22181 51.7487 11.615 49.0468 11.615C46.2408 11.615 44.7124 9.1587 44.7124 6.10025C44.7124 3.0418 46.2596 0.626426 49.0468 0.626426Z" fill="#232F3E"/>
<path fill-rule="evenodd" clip-rule="evenodd" d="M57.1833 11.3933H55.2626C55.1714 11.3885 55.0853 11.3492 55.0219 11.2833C54.9586 11.2174 54.9227 11.1299 54.9215 11.0385V1.14499C54.9313 1.0544 54.9748 0.970792 55.0434 0.910761C55.1119 0.850731 55.2005 0.818656 55.2916 0.820897H57.0793C57.1585 0.823439 57.2347 0.851819 57.2963 0.90171C57.3579 0.9516 57.4015 1.02026 57.4205 1.09723V2.61025H57.458C57.997 1.25757 58.7527 0.612793 60.0832 0.612793C60.9463 0.612793 61.7889 0.924949 62.3331 1.77784C62.8363 2.56931 62.8363 3.90152 62.8363 4.85846V11.0828C62.8227 11.1706 62.7776 11.2505 62.7095 11.3076C62.6415 11.3647 62.555 11.3952 62.4661 11.3933H60.5284C60.4441 11.3897 60.3639 11.3566 60.3015 11.2999C60.2392 11.2431 60.1987 11.1663 60.1872 11.0828V5.71135C60.1872 4.62989 60.3134 3.04693 58.9812 3.04693C58.739 3.05813 58.5051 3.13868 58.3073 3.27899C58.1095 3.41931 57.9562 3.61348 57.8657 3.83841C57.5961 4.44225 57.5603 5.0461 57.5603 5.71476V11.0385C57.5568 11.135 57.5154 11.2263 57.4452 11.2926C57.3751 11.359 57.2816 11.3951 57.1851 11.3933" fill="#232F3E"/>
<path fill-rule="evenodd" clip-rule="evenodd" d="M72.8628 2.32369C71.8835 2.33143 70.9333 2.65775 70.1558 3.25334V8.88239C71.0178 9.53058 71.9065 9.85411 72.8219 9.85297C74.68 9.85297 75.6091 8.60207 75.6091 6.10027C75.6091 3.59847 74.6937 2.33905 72.8628 2.32199V2.32369ZM70.0142 2.06101C70.4983 1.63412 71.0515 1.29264 71.65 1.05119C72.2155 0.825792 72.8187 0.710016 73.4274 0.710033C74.0325 0.698771 74.6327 0.819862 75.1861 1.06483C75.7076 1.30391 76.1643 1.66418 76.5183 2.11559C76.9037 2.61568 77.1887 3.18566 77.3575 3.79407C77.5621 4.51515 77.6609 5.2621 77.6509 6.01157C77.6602 6.77699 77.5544 7.53946 77.3371 8.27343C77.1551 8.89624 76.8571 9.47905 76.4586 9.99114C76.0886 10.4567 75.6187 10.8333 75.0837 11.0931C74.5216 11.354 73.9072 11.483 73.2876 11.47C72.1295 11.4892 71.0086 11.0616 70.1575 10.276V15.0112C70.1655 15.0662 70.1606 15.1222 70.1431 15.1749C70.1256 15.2277 70.0961 15.2756 70.0568 15.3148C70.0175 15.3541 69.9696 15.3836 69.9169 15.4011C69.8642 15.4186 69.8082 15.4235 69.7532 15.4155H68.5592C68.5042 15.4235 68.4482 15.4186 68.3955 15.4011C68.3427 15.3836 68.2949 15.3541 68.2556 15.3148C68.2163 15.2756 68.1868 15.2277 68.1693 15.1749C68.1518 15.1222 68.1469 15.0662 68.1549 15.0112V1.41452C68.1472 1.35964 68.1524 1.30373 68.17 1.25119C68.1876 1.19865 68.2172 1.15091 68.2564 1.11173C68.2956 1.07255 68.3433 1.04299 68.3958 1.02538C68.4484 1.00777 68.5043 1.00259 68.5592 1.01025H69.4479C69.5053 1.00488 69.5631 1.0112 69.618 1.02883C69.6729 1.04646 69.7236 1.07503 69.7672 1.11281C69.8107 1.1506 69.8461 1.19682 69.8713 1.24867C69.8964 1.30053 69.9108 1.35694 69.9136 1.41452L70.0142 2.06101Z" fill="#232F3E"/>
<path fill-rule="evenodd" clip-rule="evenodd" d="M82.6898 10.0065C83.1659 10.0005 83.6374 9.91217 84.0834 9.74552C84.584 9.56141 85.0538 9.30261 85.477 8.97792V6.91565C85.127 6.83333 84.7728 6.76956 84.416 6.7246C84.058 6.67764 83.6973 6.65371 83.3363 6.65296C81.8124 6.65296 81.0511 7.23917 81.0522 8.41161C81.0522 8.92334 81.1938 9.31737 81.477 9.59371C81.7601 9.87004 82.1644 10.0076 82.6898 10.0065ZM80.3256 2.77062L80.1738 2.82179C80.119 2.84125 80.0613 2.85162 80.0032 2.8525C79.8326 2.8525 79.7405 2.73139 79.7405 2.48746V1.94673C79.7276 1.81014 79.7561 1.67282 79.8224 1.5527C79.9096 1.45494 80.0207 1.38147 80.1448 1.33948C80.6578 1.131 81.1928 0.981634 81.7397 0.894269C82.3661 0.780835 83.0015 0.723748 83.6382 0.723692C84.9175 0.723692 85.8602 0.985812 86.4664 1.51005C87.0725 2.03429 87.3761 2.84908 87.3772 3.95442V10.856C87.3849 10.9109 87.3797 10.9668 87.3621 11.0193C87.3445 11.0718 87.3149 11.1196 87.2758 11.1588C87.2366 11.1979 87.1888 11.2275 87.1363 11.2451C87.0838 11.2627 87.0278 11.2679 86.973 11.2602H86.103C86.0484 11.2656 85.9933 11.2598 85.941 11.2432C85.8887 11.2266 85.8403 11.1995 85.7988 11.1636C85.7573 11.1277 85.7236 11.0837 85.6996 11.0344C85.6757 10.985 85.662 10.9313 85.6595 10.8764L85.5572 10.2095C85.0814 10.6217 84.5385 10.9494 83.952 11.1784C83.396 11.4013 82.8027 11.517 82.2036 11.5195C81.2347 11.5195 80.4672 11.2466 79.9008 10.7008C79.3345 10.1549 79.0502 9.42427 79.048 8.50884C79.048 7.52631 79.3982 6.74166 80.0987 6.15487C80.7992 5.56809 81.7419 5.27526 82.9269 5.2764C83.7857 5.2896 84.6399 5.40411 85.4719 5.61755V4.29046C85.4719 3.56267 85.3104 3.05093 84.9874 2.75527C84.6645 2.4596 84.0987 2.3112 83.2902 2.31006C82.2849 2.31956 81.2864 2.47469 80.3256 2.77062Z" fill="#232F3E"/>
<path fill-rule="evenodd" clip-rule="evenodd" d="M93.9513 13.0496C93.5862 13.9786 93.1649 14.6456 92.6873 15.0504C92.2097 15.4553 91.5842 15.6571 90.8109 15.656C90.4225 15.6612 90.0352 15.6135 89.6595 15.5144C89.5333 15.4874 89.4194 15.4197 89.3354 15.3217C89.2588 15.1983 89.2236 15.0537 89.2348 14.9089V14.3835C89.2348 14.1276 89.3354 13.9997 89.5384 13.9997C89.6406 14.0043 89.7421 14.0175 89.8421 14.0389C90.0217 14.0699 90.2039 14.0837 90.3862 14.0798C90.815 14.1069 91.2392 13.9778 91.5802 13.7165C91.8634 13.4743 92.1193 13.0297 92.3478 12.3826L92.7316 11.3591L88.8391 1.73688C88.7659 1.58368 88.7186 1.4194 88.6992 1.25073C88.6992 1.09039 88.793 1.00851 88.9807 1.00851H90.1934C90.3488 0.993615 90.5048 1.02889 90.6386 1.10915C90.7527 1.23656 90.8352 1.3891 90.8792 1.55436L93.709 9.39238L96.4383 1.55436C96.4823 1.3891 96.5647 1.23656 96.6788 1.10915C96.8126 1.02889 96.9687 0.993615 97.124 1.00851H98.2549C98.4443 1.00851 98.5381 1.09039 98.5381 1.25073C98.5178 1.41943 98.4699 1.58365 98.3965 1.73688L93.9513 13.0496Z" fill="#232F3E"/>
<path fill-rule="evenodd" clip-rule="evenodd" d="M39.1516 15.2927C35.5337 17.9622 30.2816 19.3865 25.7716 19.3865C19.7379 19.4173 13.9101 17.1939 9.43027 13.1519C9.08912 12.8466 9.39275 12.4287 9.80043 12.6658C14.4538 15.3728 20.2056 17.0036 26.152 17.0036C30.4379 16.9802 34.6771 16.1106 38.6263 14.4449C39.2369 14.1856 39.7504 14.8475 39.1516 15.2978M40.6561 13.5801C41.1201 14.172 40.1444 16.6146 39.706 17.7046C39.573 18.0338 39.8578 18.1669 40.1563 17.9179C42.0958 16.294 42.5973 12.8927 42.2033 12.4014C41.8092 11.9101 38.4165 11.4939 36.3456 12.9489C36.0267 13.1724 36.0813 13.4811 36.4361 13.4385C37.6011 13.2986 40.1973 12.9865 40.6595 13.5801" fill="#FF9900"/>
</g>
</svg>
