<svg xmlns="http://www.w3.org/2000/svg" width="32" height="32" viewBox="0 0 32 32" fill="none">
    <!-- <circle cx="16" cy="16.2026" r="15" fill="white" stroke="#E3EAF2" /> -->
    <path
        d="M19.6869 16.1404C19.7058 18.259 21.4804 18.9641 21.5 18.9731C21.485 19.0227 21.2165 19.9779 20.5652 20.9642C20.0021 21.8171 19.4176 22.6668 18.4971 22.6846C17.5926 22.7017 17.3017 22.1286 16.2675 22.1286C15.2336 22.1286 14.9105 22.6668 14.0542 22.7017C13.1655 22.7366 12.4888 21.7793 11.9211 20.9298C10.7611 19.1916 9.8745 16.0182 11.0649 13.876C11.6562 12.8122 12.7132 12.1387 13.8603 12.1213C14.7328 12.1041 15.5564 12.7296 16.0898 12.7296C16.6229 12.7296 17.6237 11.9773 18.6759 12.0877C19.1164 12.1068 20.3528 12.2721 21.1467 13.4765C21.0829 13.5177 19.6715 14.3692 19.6869 16.1404ZM17.9869 10.938C18.4586 10.3462 18.7761 9.52223 18.6896 8.70264C18.0095 8.73092 17.1872 9.17222 16.6995 9.76373C16.2624 10.2874 15.8796 11.1258 15.9828 11.9292C16.7408 11.99 17.5151 11.53 17.9869 10.938Z"
        fill="black" />
</svg>