<svg width="63" height="26" viewBox="0 0 63 26" fill="none" xmlns="http://www.w3.org/2000/svg">
<g id="logos:apple-pay" clip-path="url(#clip0_185_967)">
<path id="Vector" d="M12.02 3.33971C11.2934 4.21459 10.1307 4.90488 8.96807 4.80618C8.82275 3.62324 9.3919 2.36612 10.058 1.5897C10.7846 0.690171 12.0563 0.0492891 13.0857 0C13.2068 1.23235 12.7344 2.44006 12.02 3.33971ZM13.0736 5.04043C11.3902 4.94185 9.94905 6.01389 9.14971 6.01389C8.33838 6.01389 7.11509 5.08972 5.78294 5.11436C4.05118 5.139 2.44039 6.13711 1.55628 7.72693C-0.260367 10.9064 1.08402 15.6142 2.84 18.2021C3.69988 19.4837 4.7293 20.8886 6.08567 20.8393C7.36951 20.79 7.8781 19.9891 9.42834 19.9891C10.9906 19.9891 11.4387 20.8393 12.7951 20.8147C14.1999 20.79 15.084 19.5331 15.9439 18.2514C16.9248 16.7972 17.3245 15.3799 17.3487 15.306C17.3245 15.2813 14.636 14.234 14.6118 11.079C14.5875 8.44174 16.7311 7.18475 16.828 7.11082C15.6168 5.28687 13.7277 5.08972 13.0736 5.04043ZM22.7987 1.46647V20.6792H25.7294V14.1107H29.7865C33.4923 14.1107 36.0962 11.5228 36.0962 7.77634C36.0962 4.03 33.5408 1.4666 29.8834 1.4666H22.7985L22.7987 1.46647ZM25.7294 3.98059H29.1083C31.6516 3.98059 33.1048 5.36081 33.1048 7.78854C33.1048 10.2163 31.6516 11.6089 29.0961 11.6089H25.7294V3.98059ZM41.4492 20.827C43.29 20.827 44.9976 19.8782 45.7727 18.3746H45.8332V20.6791H48.5461V11.1159C48.5461 8.34317 46.3662 6.55619 43.0114 6.55619C39.8989 6.55619 37.5979 8.36781 37.5131 10.8572H40.1533C40.3713 9.67409 41.449 8.89767 42.9266 8.89767C44.7191 8.89767 45.7243 9.74803 45.7243 11.3132V12.3729L42.0667 12.5947C38.6636 12.8042 36.8229 14.2215 36.8229 16.6863C36.8229 19.1757 38.7242 20.827 41.4492 20.827ZM42.2363 18.5471C40.6742 18.5471 39.681 17.7831 39.681 16.6123C39.681 15.4047 40.6377 14.7022 42.4665 14.5913L45.7243 14.3818V15.4662C45.7243 17.2655 44.2226 18.5471 42.2364 18.5471H42.2363ZM52.1672 25.9044C55.0253 25.9044 56.3696 24.7954 57.5443 21.4309L62.6914 6.74102H59.7122L56.2606 18.0911H56.2001L52.7485 6.74102H49.6845L54.6498 20.7284L54.3834 21.5788C53.9354 23.0206 53.2087 23.5752 51.9129 23.5752C51.6828 23.5752 51.2347 23.5506 51.053 23.5259V25.8304C51.2225 25.8797 51.9491 25.9044 52.1672 25.9044Z" fill="black"/>
</g>
<defs>
<clipPath id="clip0_185_967">
<rect width="62" height="26" fill="white" transform="translate(0.691406)"/>
</clipPath>
</defs>
</svg>
