<svg width="832" height="631" viewBox="0 0 832 631" fill="none" xmlns="http://www.w3.org/2000/svg">
<g opacity="0.03">
<path d="M518.649 623L384.151 242.828L83.429 623H518.649Z" stroke="#101010" stroke-width="15"/>
<circle cx="156.542" cy="156.542" r="149.042" transform="matrix(-1 0 0 1 313.083 45)" stroke="#101010" stroke-width="15"/>
<path d="M531.311 449.256C531.311 496.532 538.913 538.988 550.938 569.35C556.958 584.552 563.941 596.349 571.311 604.22C578.669 612.078 585.875 615.5 592.62 615.5C599.366 615.5 606.571 612.078 613.929 604.22C621.299 596.349 628.282 584.552 634.303 569.35C646.327 538.988 653.93 496.532 653.93 449.256C653.93 401.98 646.327 359.523 634.303 329.162C628.282 313.959 621.299 302.163 613.929 294.292C606.571 286.433 599.366 283.012 592.62 283.012C585.875 283.012 578.669 286.433 571.311 294.292C563.941 302.163 556.958 313.959 550.938 329.162C538.913 359.523 531.311 401.98 531.311 449.256Z" stroke="#101010" stroke-width="15"/>
<circle cx="43.0059" cy="43.0059" r="35.5059" transform="matrix(-1 0 0 1 635.625 400.228)" stroke="#101010" stroke-width="15"/>
<rect x="-7.5" y="7.5" width="585" height="596" transform="matrix(-1 0 0 1 816.43 0)" stroke="#101010" stroke-width="15"/>
</g>
</svg>
