<svg xmlns="http://www.w3.org/2000/svg" width="14" height="14" viewBox="0 0 14 14" fill="none">
     <path
        d="M4.84995 1.05699C3.54307 1.51036 2.41602 2.37086 1.63434 3.51212C0.852665 4.65337 0.457565 6.01521 0.507075 7.39761C0.556585 8.78001 1.0481 10.1101 1.90941 11.1925C2.77073 12.2749 3.95645 13.0526 5.29241 13.4113C6.37551 13.6908 7.51027 13.7031 8.59916 13.4471C9.58558 13.2255 10.4976 12.7516 11.2458 12.0716C12.0245 11.3424 12.5898 10.4147 12.8808 9.38823C13.1969 8.272 13.2532 7.09818 13.0453 5.95682H6.96316V8.4798H10.4855C10.4151 8.88219 10.2643 9.26625 10.042 9.60899C9.81969 9.95173 9.53055 10.2461 9.19184 10.4745C8.76178 10.7591 8.27689 10.9505 7.76839 11.0365C7.25842 11.1313 6.73534 11.1313 6.22537 11.0365C5.70847 10.9297 5.21949 10.7164 4.78966 10.4101C4.09903 9.92122 3.58046 9.2267 3.30796 8.42564C3.03092 7.60956 3.03092 6.72487 3.30796 5.90879C3.50193 5.33677 3.8226 4.81595 4.24603 4.38519C4.73059 3.8832 5.34405 3.52437 6.01912 3.34808C6.69418 3.17179 7.40477 3.18484 8.0729 3.38581C8.59487 3.54596 9.07217 3.82591 9.46672 4.2033C9.86389 3.80818 10.2604 3.41204 10.6562 3.01488C10.8605 2.80131 11.0833 2.59796 11.2846 2.37928C10.6823 1.8188 9.97526 1.38266 9.2041 1.09582C7.79976 0.585898 6.26316 0.572194 4.84995 1.05699Z"
        fill="white" />
    <path
        d="M4.84981 1.057C6.26291 0.571873 7.79951 0.585216 9.20397 1.0948C9.97526 1.38359 10.6819 1.82184 11.2835 2.38439C11.0791 2.60307 10.8635 2.80745 10.655 3.01999C10.2585 3.41579 9.86239 3.81023 9.46658 4.20331C9.07204 3.82591 8.59473 3.54597 8.07276 3.38582C7.40485 3.18415 6.69429 3.17034 6.01904 3.34591C5.3438 3.52148 4.72996 3.87965 4.24487 4.38111C3.82144 4.81187 3.50077 5.33269 3.3068 5.90471L1.18848 4.26462C1.94671 2.76101 3.25954 1.61087 4.84981 1.057Z"
        fill="#E33629" />
    <path
        d="M0.626708 5.88892C0.740482 5.32462 0.929512 4.77815 1.18873 4.26416L3.30705 5.90834C3.03002 6.72442 3.03002 7.60911 3.30705 8.42518C2.60129 8.97018 1.89518 9.5179 1.18873 10.0683C0.540004 8.77703 0.342153 7.30574 0.626708 5.88892Z"
        fill="#F8BD00" />
    <path
        d="M6.96334 5.95605H13.0455C13.2534 7.09741 13.1971 8.27124 12.881 9.38747C12.59 10.4139 12.0247 11.3416 11.246 12.0709C10.5623 11.5375 9.87565 11.0081 9.19203 10.4747C9.53096 10.2461 9.82024 9.95143 10.0425 9.60833C10.2648 9.26522 10.4156 8.88077 10.4857 8.47801H6.96334C6.96232 7.63804 6.96334 6.79705 6.96334 5.95605Z"
        fill="#587DBD" />
    <path
        d="M1.1875 10.0689C1.89395 9.52394 2.60005 8.97622 3.30582 8.42578C3.57887 9.22712 4.09818 9.92168 4.78957 10.4102C5.22074 10.7151 5.71077 10.9267 6.22835 11.0315C6.73831 11.1264 7.2614 11.1264 7.77136 11.0315C8.27987 10.9456 8.76475 10.7541 9.19482 10.4695C9.87844 11.0029 10.5651 11.5322 11.2488 12.0657C10.5006 12.7459 9.58866 13.2202 8.60214 13.4421C7.51325 13.6981 6.37848 13.6858 5.29539 13.4063C4.43876 13.1776 3.63862 12.7744 2.9451 12.222C2.21113 11.6392 1.61161 10.9047 1.1875 10.0689Z"
        fill="#319F43" />
</svg>