<svg width="74" height="30" viewBox="0 0 74 30" fill="none" xmlns="http://www.w3.org/2000/svg">
<g id="logos:google-pay" clip-path="url(#clip0_185_961)">
<path id="Vector" d="M51.8985 8.09682C53.9053 8.09682 55.4561 8.66138 56.6421 9.79049C57.8279 10.9195 58.3751 12.4249 58.3751 14.3067V23.339H55.821V21.2693H55.7297C54.6352 22.963 53.0843 23.8098 51.2599 23.8098C49.7091 23.8098 48.3408 23.3392 47.2462 22.3984C46.2427 21.4576 45.6041 20.1403 45.6041 18.729C45.6041 17.2236 46.1516 16.0003 47.2462 15.0595C48.3408 14.1186 49.8916 13.7423 51.716 13.7423C53.3579 13.7423 54.6352 14.0246 55.6385 14.6831V14.0246C55.6385 13.1464 55.3207 12.2683 54.6849 11.6961L54.5438 11.5783C53.8141 10.9196 52.9018 10.5433 51.8985 10.5433C50.3477 10.5433 49.1619 11.202 48.3408 12.5192L45.9691 11.0134C47.4286 9.03755 49.3442 8.09682 51.8985 8.09682ZM39.0363 1.69888C40.6731 1.69888 42.2286 2.28638 43.4723 3.38197L43.6886 3.5805C44.9657 4.70961 45.6041 6.40329 45.6041 8.19094C45.6041 9.97858 44.9657 11.5781 43.6886 12.8012C42.4114 14.0245 40.8607 14.683 39.0363 14.683L34.6577 14.5889V23.3392H31.9209V1.69873L39.0363 1.69888ZM52.2632 16.0003C51.1687 16.0003 50.2564 16.2826 49.5267 16.8471C48.7969 17.3176 48.432 17.9761 48.432 18.8228C48.432 19.5756 48.797 20.2342 49.3442 20.6106C49.9828 21.0811 50.7126 21.3633 51.4424 21.3633C52.464 21.3633 53.4857 20.9534 54.2848 20.2103L54.4527 20.0461C55.3649 19.1993 55.821 18.1643 55.821 17.0352C55 16.3767 53.8141 16.0002 52.2634 16.0002L52.2632 16.0003ZM39.2188 4.33329H34.6577V11.8605H39.2188C40.2221 11.8605 41.2255 11.4842 41.8642 10.7315C43.3236 9.3202 43.3236 6.968 41.9554 5.55652L41.8642 5.46241C41.1343 4.70976 40.2221 4.23932 39.2186 4.33344L39.2188 4.33329ZM73.1531 8.56726L64.1222 29.9253H61.3855L64.7606 22.4924L58.8312 8.66138H61.7504L66.0377 19.2933H66.129L70.3252 8.66138H73.1531V8.56726Z" fill="#5F6368"/>
<path id="Vector_2" d="M23.8027 12.7068C23.8027 11.86 23.7114 11.0133 23.6202 10.1665H12.2178V14.965H18.6944C18.4208 16.4703 17.5998 17.8817 16.3227 18.7286V21.8334H20.2452C22.5257 19.6694 23.8028 16.4703 23.8028 12.7069L23.8027 12.7068Z" fill="#4285F4"/>
<path id="Vector_3" d="M12.2172 24.8444C15.5011 24.8444 18.2377 23.7152 20.2446 21.8335L16.3222 18.7286C15.2275 19.4813 13.8591 19.9517 12.2172 19.9517C9.11556 19.9517 6.37891 17.7877 5.4667 14.7769H1.45312V17.9758C3.55116 22.2098 7.65613 24.8444 12.2172 24.8444Z" fill="#34A853"/>
<path id="Vector_4" d="M5.46689 14.7768C4.91967 13.2714 4.91967 11.5778 5.46689 9.97827V6.7793H1.45331C-0.28001 10.2606 -0.28001 14.4005 1.45331 17.9758L5.46689 14.7768Z" fill="#FBBC04"/>
<path id="Vector_5" d="M12.2179 4.8977C13.9511 4.8977 15.593 5.55637 16.8702 6.77946L20.3366 3.20417C18.1471 1.13417 15.2281 -0.0889205 12.309 0.00505007C7.74793 0.00505007 3.55185 2.63961 1.54492 6.87358L5.55864 10.0725C6.3796 7.06167 9.11625 4.8977 12.2179 4.8977Z" fill="#EA4335"/>
</g>
<defs>
<clipPath id="clip0_185_961">
<rect width="73" height="30" fill="white" transform="translate(0.15332)"/>
</clipPath>
</defs>
</svg>
