<svg width="31" height="31" viewBox="0 0 31 31" fill="none" xmlns="http://www.w3.org/2000/svg">
<g id="Component 191">
<circle id="Ellipse 8" cx="15.5" cy="15.5" r="15.5" fill="#D9D9D9"/>
<path id="Vector" d="M15.5 13C14.837 13 14.2011 13.2634 13.7322 13.7322C13.2634 14.2011 13 14.837 13 15.5C13 16.163 13.2634 16.7989 13.7322 17.2678C14.2011 17.7366 14.837 18 15.5 18C16.163 18 16.7989 17.7366 17.2678 17.2678C17.7366 16.7989 18 16.163 18 15.5C18 14.837 17.7366 14.2011 17.2678 13.7322C16.7989 13.2634 16.163 13 15.5 13Z" fill="#1E1E1E"/>
<path id="Vector_2" fill-rule="evenodd" clip-rule="evenodd" d="M12.5 8C11.3065 8 10.1619 8.47411 9.31802 9.31802C8.47411 10.1619 8 11.3065 8 12.5V18.5C8 19.6935 8.47411 20.8381 9.31802 21.682C10.1619 22.5259 11.3065 23 12.5 23H18.5C19.6935 23 20.8381 22.5259 21.682 21.682C22.5259 20.8381 23 19.6935 23 18.5V12.5C23 11.3065 22.5259 10.1619 21.682 9.31802C20.8381 8.47411 19.6935 8 18.5 8H12.5ZM12 15.5C12 14.5717 12.3687 13.6815 13.0251 13.0251C13.6815 12.3687 14.5717 12 15.5 12C16.4283 12 17.3185 12.3687 17.9749 13.0251C18.6313 13.6815 19 14.5717 19 15.5C19 16.4283 18.6313 17.3185 17.9749 17.9749C17.3185 18.6313 16.4283 19 15.5 19C14.5717 19 13.6815 18.6313 13.0251 17.9749C12.3687 17.3185 12 16.4283 12 15.5ZM19 12H20V11H19V12Z" fill="#1E1E1E"/>
</g>
</svg>
