<svg width="46" height="36" viewBox="0 0 46 36" fill="none" xmlns="http://www.w3.org/2000/svg">
<g id="logos:mastercard" clip-path="url(#clip0_185_956)">
<path id="Vector" d="M8.79574 35.821V33.4383C8.79574 32.5247 8.25539 31.9292 7.3292 31.9292C6.86619 31.9292 6.36451 32.088 6.01717 32.6043C5.74717 32.1675 5.36133 31.9292 4.78248 31.9292C4.39646 31.9292 4.0108 32.0482 3.70195 32.4851V32.0086H2.8916V35.821H3.70195V33.7162C3.70195 33.0412 4.0493 32.7234 4.58965 32.7234C5.12965 32.7234 5.4 33.0808 5.4 33.7162V35.821H6.21035V33.7162C6.21035 33.0412 6.59602 32.7234 7.0977 32.7234C7.63805 32.7234 7.90805 33.0808 7.90805 33.7162V35.821H8.79574ZM20.7965 32.0086H19.4846V30.857H18.6743V32.0086H17.9411V32.763H18.6741V34.5105C18.6741 35.3843 19.0215 35.9004 19.9477 35.9004C20.295 35.9004 20.6807 35.7814 20.951 35.6225L20.7193 34.9076C20.4878 35.0664 20.2178 35.1062 20.0248 35.1062C19.639 35.1062 19.4846 34.868 19.4846 34.4707V32.763H20.7965V32.0086ZM27.6653 31.929C27.2023 31.929 26.8937 32.1675 26.7006 32.4851V32.0086H25.8903V35.821H26.7006V33.6766C26.7006 33.0412 26.9706 32.6838 27.4723 32.6838C27.6267 32.6838 27.8197 32.7236 27.974 32.7632L28.2055 31.969C28.0512 31.9292 27.8197 31.9292 27.6653 31.9292V31.929ZM17.2851 32.3263C16.8991 32.0482 16.3589 31.9292 15.7801 31.9292C14.854 31.9292 14.2367 32.4057 14.2367 33.1603C14.2367 33.7958 14.6997 34.1531 15.5101 34.2723L15.8959 34.3121C16.3204 34.3913 16.5519 34.5105 16.5519 34.7092C16.5519 34.987 16.2432 35.1857 15.7029 35.1857C15.1627 35.1857 14.7382 34.987 14.468 34.7886L14.0822 35.4239C14.5067 35.7416 15.0855 35.9004 15.6642 35.9004C16.7447 35.9004 17.3623 35.3843 17.3623 34.6694C17.3623 33.9942 16.8606 33.6368 16.0887 33.5177L15.7029 33.4779C15.3555 33.4381 15.0855 33.3589 15.0855 33.1206C15.0855 32.8426 15.3555 32.6838 15.7801 32.6838C16.2432 32.6838 16.7062 32.8822 16.9378 33.0014L17.2851 32.3263ZM38.8174 31.9292C38.3542 31.9292 38.0456 32.1675 37.8526 32.4851V32.0086H37.0422V35.821H37.8526V33.6766C37.8526 33.0412 38.1227 32.6838 38.6242 32.6838C38.7788 32.6838 38.9718 32.7236 39.1261 32.7632L39.3576 31.969C39.2033 31.9292 38.9718 31.9292 38.8174 31.9292ZM28.4757 33.9148C28.4757 35.0664 29.2474 35.9004 30.4437 35.9004C30.9839 35.9004 31.3697 35.7814 31.7556 35.4637L31.3697 34.7886C31.0611 35.0268 30.7524 35.1459 30.4051 35.1459C29.749 35.1459 29.286 34.6694 29.286 33.9148C29.286 33.2001 29.749 32.7234 30.4051 32.6838C30.7524 32.6838 31.0611 32.8028 31.3697 33.0412L31.7556 32.3661C31.3697 32.0482 30.9839 31.9292 30.4437 31.9292C29.2474 31.9292 28.4757 32.7632 28.4757 33.9148ZM35.9619 33.9148V32.0086H35.1515V32.4851C34.8813 32.1278 34.4955 31.9292 33.9938 31.9292C32.952 31.9292 32.1416 32.7632 32.1416 33.9148C32.1416 35.0664 32.952 35.9004 33.9938 35.9004C34.534 35.9004 34.92 35.702 35.1515 35.3445V35.821H35.9619V33.9148ZM32.9904 33.9148C32.9904 33.2397 33.415 32.6838 34.1095 32.6838C34.7655 32.6838 35.2287 33.2001 35.2287 33.9148C35.2287 34.5899 34.7655 35.1459 34.1095 35.1459C33.415 35.1061 32.9904 34.5899 32.9904 33.9148ZM23.3049 31.9292C22.2244 31.9292 21.4525 32.7234 21.4525 33.9148C21.4525 35.1062 22.2242 35.9004 23.3434 35.9004C23.8836 35.9004 24.4239 35.7416 24.8484 35.3843L24.4624 34.7886C24.1538 35.0268 23.7679 35.1857 23.3821 35.1857C22.8804 35.1857 22.3787 34.9474 22.2629 34.2721H25.0028V33.9546C25.0414 32.7234 24.3469 31.9292 23.3049 31.9292ZM23.3049 32.644C23.8064 32.644 24.1539 32.9618 24.2309 33.5575H22.3015C22.3787 33.0412 22.7261 32.644 23.3049 32.644ZM43.4094 33.9148V30.4995H42.599V32.4851C42.3288 32.1278 41.943 31.9292 41.4413 31.9292C40.3995 31.9292 39.5891 32.7632 39.5891 33.9148C39.5891 35.0664 40.3995 35.9004 41.4413 35.9004C41.9817 35.9004 42.3675 35.702 42.599 35.3445V35.821H43.4094V33.9148ZM40.4381 33.9148C40.4381 33.2397 40.8625 32.6838 41.5571 32.6838C42.2132 32.6838 42.6762 33.2001 42.6762 33.9148C42.6762 34.5899 42.2132 35.1459 41.5571 35.1459C40.8625 35.1061 40.4381 34.5899 40.4381 33.9148ZM13.349 33.9148V32.0086H12.5387V32.4851C12.2685 32.1278 11.8826 31.9292 11.381 31.9292C10.3391 31.9292 9.52875 32.7632 9.52875 33.9148C9.52875 35.0664 10.3391 35.9004 11.381 35.9004C11.9213 35.9004 12.3071 35.702 12.5387 35.3445V35.821H13.349V33.9148ZM10.3391 33.9148C10.3391 33.2397 10.7636 32.6838 11.4581 32.6838C12.1141 32.6838 12.5773 33.2001 12.5773 33.9148C12.5773 34.5899 12.1141 35.1459 11.4581 35.1459C10.7636 35.1061 10.3391 34.5899 10.3391 33.9148Z" fill="black"/>
<path id="Vector_2" d="M17.0156 3.05762H29.1709V25.5352H17.0156V3.05762Z" fill="#FF5F00"/>
<path id="Vector_3" d="M17.7871 14.2967C17.7871 9.72977 19.8708 5.67896 23.0736 3.05783C20.7199 1.15164 17.7486 0 14.5072 0C6.82787 0 0.615234 6.39371 0.615234 14.2967C0.615234 22.1995 6.82787 28.5934 14.5071 28.5934C17.7485 28.5934 20.7197 27.4418 23.0736 25.5354C19.8708 22.9541 17.7871 18.8636 17.7871 14.2967Z" fill="#EB001B"/>
<path id="Vector_4" d="M45.5706 14.2967C45.5706 22.1995 39.358 28.5934 31.6788 28.5934C28.4374 28.5934 25.4662 27.4418 23.1123 25.5354C26.3537 22.9145 28.3989 18.8636 28.3989 14.2967C28.3989 9.72977 26.315 5.67895 23.1123 3.05783C25.466 1.15164 28.4374 0 31.6788 0C39.358 0 45.5706 6.43351 45.5706 14.2967Z" fill="#F79E1B"/>
</g>
<defs>
<clipPath id="clip0_185_956">
<rect width="45" height="36" fill="white" transform="translate(0.615234)"/>
</clipPath>
</defs>
</svg>
