<svg width="104" height="20" viewBox="0 0 104 20" fill="none" xmlns="http://www.w3.org/2000/svg">
<g id="Payoneer">
<path id="Payoneer_2" d="M26.5076 16.5837V12.2858H28.3543C31.8024 12.2858 33.8778 10.3574 33.8778 7.48126C33.8778 4.76852 31.786 3.19971 28.7628 3.19971H24.2852V16.5837H26.5076ZM28.6648 5.19341C30.446 5.19341 31.639 6.0105 31.639 7.74273C31.639 9.34423 30.2989 10.2921 28.5504 10.2921H26.5076V5.19341H28.6648ZM64.8292 11.9099C64.8292 9.14813 62.7374 7.05638 59.9757 7.05638C57.3119 7.05638 55.1385 9.21349 55.1385 11.8772C55.1385 11.9099 55.1385 11.9262 55.1385 11.9589C55.1385 14.7534 57.1485 16.7798 59.9757 16.7798C62.623 16.8124 64.7965 14.7043 64.8292 12.057C64.8455 12.0079 64.8455 11.9589 64.8292 11.9099ZM57.2466 11.9099C57.2466 10.3084 58.4232 9.03373 59.9757 9.08276C61.6915 9.13178 62.7538 10.3247 62.7211 11.9099C62.6884 13.5114 61.5281 14.737 59.9757 14.737C58.4232 14.737 57.2466 13.495 57.2466 11.9099ZM85.8284 12.4655C85.8774 12.1387 85.8938 11.8118 85.8938 11.485C85.8938 8.87032 83.9001 7.04003 81.3671 7.04003C78.7361 7.00735 76.5789 9.11544 76.5463 11.7465C76.5463 11.7792 76.5463 11.8282 76.5463 11.8609C76.5463 14.7043 78.4419 16.7634 81.3017 16.7634C83.23 16.7634 84.8479 15.8483 85.5179 14.5736L83.8674 13.6585C83.4262 14.3775 82.4947 14.8678 81.4325 14.8678C79.9617 14.8678 78.9158 13.969 78.7034 12.4492L85.8284 12.4655ZM78.8504 10.8477C79.1283 9.6057 80.0434 8.85397 81.3181 8.85397C82.6091 8.85397 83.5896 9.67106 83.704 10.8477H78.8504ZM52.8016 7.21979L50.2196 13.8873L47.9154 7.21979H45.4968L48.9613 16.5837L47.5232 19.8684H49.8111L55.0895 7.21979H52.8016ZM103.461 7.26882C103.167 7.18711 102.857 7.13808 102.546 7.15443C101.631 7.15443 100.601 7.67736 100.16 8.57616V7.23614H98.0521V16.6H100.16V11.5831C100.16 9.85082 101.32 9.13178 102.513 9.13178C102.824 9.13178 103.151 9.16447 103.445 9.22984C103.445 9.24618 103.461 7.26882 103.461 7.26882ZM96.4996 12.4655C96.5486 12.1387 96.565 11.8118 96.565 11.485C96.565 8.87032 94.5713 7.04003 92.0383 7.04003C89.4072 7.00735 87.2501 9.11544 87.2174 11.7465C87.2174 11.7792 87.2174 11.8282 87.2174 11.8609C87.2174 14.7043 89.1131 16.7634 91.9729 16.7634C93.9012 16.7634 95.5191 15.8483 96.1891 14.5736L94.5386 13.6585C94.0974 14.3775 93.1659 14.8678 92.1037 14.8678C90.6329 14.8678 89.587 13.969 89.3746 12.4492L96.4996 12.4655ZM89.5053 10.8477C89.7831 9.6057 90.6982 8.85397 91.9729 8.85397C93.2639 8.85397 94.2444 9.67106 94.3588 10.8477H89.5053ZM42.1467 11.8936C42.1794 13.495 40.9211 14.8187 39.3196 14.8678C39.2706 14.8678 39.2379 14.8678 39.1889 14.8678C37.5547 14.8678 36.4598 13.5931 36.4598 11.8936C36.4761 10.2757 37.7671 8.96837 39.385 8.95203C41.0355 8.93568 42.1467 10.2103 42.1467 11.8936ZM75.1245 11.2562C75.1245 8.64153 73.8499 7.05638 71.464 7.05638C70.2056 7.05638 69.0454 7.59565 68.408 8.44543V7.23614H66.2836V16.6H68.408V11.5177C68.408 9.94888 69.5356 8.95203 70.892 8.95203C72.2484 8.95203 72.9674 9.86717 72.9674 11.4196V16.6H75.1245V11.2562ZM42.1467 7.21979V8.42909C41.5258 7.612 40.5289 7.04003 39.0418 7.04003C36.4598 7.04003 34.3027 9.32789 34.3027 12.0243C34.3027 14.737 36.1493 16.7634 38.6496 16.7634C40.2674 16.7634 41.4767 16.1914 42.1631 15.2273V16.5837H44.2548V7.21979H42.1467Z" fill="#000008"/>
<g id="Circle">
<mask id="mask0_185_969" style="mask-type:alpha" maskUnits="userSpaceOnUse" x="0" y="0" width="21" height="20">
<path id="Mask" d="M20.2295 10C20.2295 15.5228 15.7523 20 10.2295 20C4.70664 20 0.229492 15.5228 0.229492 10C0.229492 4.47715 4.70664 0 10.2295 0C15.7523 0 20.2295 4.47715 20.2295 10ZM2.45456 10C2.45456 14.294 5.93552 17.7749 10.2295 17.7749C14.5235 17.7749 18.0044 14.294 18.0044 10C18.0044 5.70602 14.5235 2.22507 10.2295 2.22507C5.93552 2.22507 2.45456 5.70602 2.45456 10Z" fill="#F6F8FC"/>
</mask>
<g mask="url(#mask0_185_969)">
<path id="Element" d="M20.2295 10C20.2295 15.5228 15.7523 20 10.2295 20C4.70664 20 0.229492 15.5228 0.229492 10C0.229492 4.47715 4.70664 0 10.2295 0C15.7523 0 20.2295 4.47715 20.2295 10ZM1.95035 10C1.95035 14.5724 5.65705 18.2791 10.2295 18.2791C14.8019 18.2791 18.5086 14.5724 18.5086 10C18.5086 5.42756 14.8019 1.72086 10.2295 1.72086C5.65705 1.72086 1.95035 5.42756 1.95035 10Z" fill="white"/>
<g id="Element_2" filter="url(#filter0_f_185_969)">
<circle cx="2.2033" cy="8.55681" r="12.6076" fill="#FE4800"/>
</g>
<g id="Element_3" filter="url(#filter1_f_185_969)">
<circle cx="12.7975" cy="18.3908" r="7.50452" fill="#E248CF"/>
</g>
<g id="Element_4" filter="url(#filter2_f_185_969)">
<circle cx="18.4561" cy="15.4429" r="6.32911" fill="#2490E1"/>
</g>
<g id="Element_5" filter="url(#filter3_f_185_969)">
<ellipse cx="22.0043" cy="4.30752" rx="8.10488" ry="8.10488" fill="#2CD87B"/>
</g>
<g id="Element_6" filter="url(#filter4_f_185_969)">
<ellipse cx="14.3633" cy="-2.32176" rx="7.8047" ry="7.8047" fill="#FBD600"/>
</g>
</g>
</g>
</g>
<defs>
<filter id="filter0_f_185_969" x="-22.3905" y="-16.037" width="49.1873" height="49.1878" filterUnits="userSpaceOnUse" color-interpolation-filters="sRGB">
<feFlood flood-opacity="0" result="BackgroundImageFix"/>
<feBlend mode="normal" in="SourceGraphic" in2="BackgroundImageFix" result="shape"/>
<feGaussianBlur stdDeviation="5.99311" result="effect1_foregroundBlur_185_969"/>
</filter>
<filter id="filter1_f_185_969" x="-6.69325" y="-1.09999" width="38.9812" height="38.9817" filterUnits="userSpaceOnUse" color-interpolation-filters="sRGB">
<feFlood flood-opacity="0" result="BackgroundImageFix"/>
<feBlend mode="normal" in="SourceGraphic" in2="BackgroundImageFix" result="shape"/>
<feGaussianBlur stdDeviation="5.99311" result="effect1_foregroundBlur_185_969"/>
</filter>
<filter id="filter2_f_185_969" x="0.140733" y="-2.87245" width="36.6306" height="36.6306" filterUnits="userSpaceOnUse" color-interpolation-filters="sRGB">
<feFlood flood-opacity="0" result="BackgroundImageFix"/>
<feBlend mode="normal" in="SourceGraphic" in2="BackgroundImageFix" result="shape"/>
<feGaussianBlur stdDeviation="5.99311" result="effect1_foregroundBlur_185_969"/>
</filter>
<filter id="filter3_f_185_969" x="1.91319" y="-15.7836" width="40.1824" height="40.1824" filterUnits="userSpaceOnUse" color-interpolation-filters="sRGB">
<feFlood flood-opacity="0" result="BackgroundImageFix"/>
<feBlend mode="normal" in="SourceGraphic" in2="BackgroundImageFix" result="shape"/>
<feGaussianBlur stdDeviation="5.99311" result="effect1_foregroundBlur_185_969"/>
</filter>
<filter id="filter4_f_185_969" x="-5.42763" y="-22.1127" width="39.5818" height="39.5818" filterUnits="userSpaceOnUse" color-interpolation-filters="sRGB">
<feFlood flood-opacity="0" result="BackgroundImageFix"/>
<feBlend mode="normal" in="SourceGraphic" in2="BackgroundImageFix" result="shape"/>
<feGaussianBlur stdDeviation="5.99311" result="effect1_foregroundBlur_185_969"/>
</filter>
</defs>
</svg>
