<svg width="29" height="34" viewBox="0 0 29 34" fill="none" xmlns="http://www.w3.org/2000/svg">
<g id="logos:paypal" clip-path="url(#clip0_185_979)">
<path id="Vector" d="M24.601 2.64641C23.0226 0.858373 20.1692 0.0917969 16.519 0.0917969H5.9249C5.56374 0.0918102 5.21443 0.219864 4.93977 0.452937C4.66512 0.686009 4.48313 1.00881 4.42653 1.36331L0.0153533 29.1675C-0.0723264 29.7158 0.354857 30.2123 0.914014 30.2123H7.45442L9.097 19.858L9.04602 20.1822C9.16304 19.4503 9.79288 18.9105 10.5387 18.9105H13.6467C19.7523 18.9105 24.5332 16.4458 25.9297 9.31604C25.9711 9.10517 26.0071 8.89994 26.0381 8.69943C25.8618 8.60666 25.8618 8.60666 26.0381 8.69943C26.454 6.0642 26.0353 4.27042 24.601 2.64641Z" fill="#27346A"/>
<path id="Vector_2" d="M11.5996 7.75013C11.7784 7.66551 11.974 7.62166 12.172 7.62178H20.4776C21.4611 7.62178 22.3784 7.68539 23.2167 7.81948C23.4513 7.85665 23.6846 7.90103 23.9165 7.95255C24.245 8.02461 24.5698 8.11279 24.8895 8.21678C25.3017 8.35357 25.6855 8.51288 26.0382 8.69943C26.454 6.06319 26.0353 4.27042 24.601 2.64641C23.0216 0.858373 20.1692 0.0917969 16.519 0.0917969H5.92399C5.17803 0.0917969 4.54343 0.631519 4.42653 1.36331L0.0153539 29.1665C-0.0723258 29.7157 0.354858 30.2115 0.913108 30.2115H7.45442L10.8623 8.7341C10.8958 8.523 10.9804 8.32314 11.1088 8.15174C11.2373 7.98033 11.4057 7.84251 11.5996 7.75013Z" fill="#27346A"/>
<path id="Vector_3" d="M25.9301 9.31632C24.5336 16.4451 19.7529 18.9107 13.6472 18.9107H10.5383C9.79243 18.9107 9.16247 19.4506 9.04658 20.1825L7.0031 33.0569C6.92675 33.5367 7.30012 33.9715 7.78859 33.9715H13.302C13.6178 33.9714 13.9232 33.8594 14.1634 33.6555C14.4035 33.4516 14.5625 33.1692 14.6119 32.8592L14.6656 32.58L15.7047 26.0349L15.7716 25.6731C15.821 25.3631 15.98 25.0808 16.2201 24.8769C16.4602 24.673 16.7656 24.5609 17.0814 24.5608H17.9065C23.2474 24.5608 27.4294 22.4044 28.6515 16.1678C29.1616 13.5615 28.8976 11.3855 27.5482 9.85706C27.139 9.39412 26.6307 9.01179 26.0385 8.69971C26.0065 8.90123 25.9717 9.10546 25.9301 9.31632Z" fill="#2790C3"/>
<path id="Vector_4" d="M24.5765 8.12021C24.3587 8.05702 24.1389 8.00107 23.9174 7.95247C23.6855 7.90179 23.4521 7.85771 23.2177 7.82029C22.3785 7.68531 21.4618 7.62159 20.4774 7.62159H12.1729C11.9747 7.62114 11.779 7.66537 11.6005 7.75094C11.4063 7.84304 11.2377 7.98078 11.1092 8.15224C10.9807 8.32369 10.8962 8.52369 10.863 8.73492L9.09785 19.8579L9.04688 20.1821C9.16299 19.4502 9.79283 18.9104 10.5388 18.9104H13.6477C19.7533 18.9104 24.534 16.4457 25.9305 9.31596C25.9721 9.10509 26.007 8.90075 26.0391 8.69934C25.6854 8.5138 25.3026 8.35349 24.8904 8.2176C24.7864 8.18333 24.6818 8.15086 24.5766 8.12021" fill="#1F264F"/>
</g>
<defs>
<clipPath id="clip0_185_979">
<rect width="29" height="34" fill="white"/>
</clipPath>
</defs>
</svg>
