<svg width="57" height="26" viewBox="0 0 57 26" fill="none" xmlns="http://www.w3.org/2000/svg">
<path id="Vector" d="M15.7165 26L17.1562 22.3798L14.3445 15.6343H16.0338L17.9402 20.4129L19.7508 15.6343H21.4098L17.3218 26H15.7165ZM9.90184 22.8746C8.24984 22.8746 6.53017 21.5013 6.53017 19.1869C6.53017 16.8338 8.19151 15.4919 9.92517 15.4919C10.8282 15.4919 11.6402 15.878 12.1325 16.4838V15.6343H13.7122V22.7298H12.1325V21.8079C11.8611 22.1465 11.52 22.418 11.134 22.6026C10.748 22.7871 10.327 22.8801 9.90184 22.8746ZM0.0878385 22.7298V13.8821H3.02317C4.79417 13.8821 6.10317 15.2843 6.10317 17.0317C6.10317 18.7886 4.79184 20.1981 3.01151 20.1981H1.68617V22.7322L0.0878385 22.7298ZM10.1562 21.3734C11.3298 21.3734 12.2095 20.3912 12.2095 19.1675C12.2095 17.9681 11.3298 16.981 10.1562 16.981C9.88032 16.9803 9.60712 17.0366 9.35267 17.1468C9.09821 17.257 8.86765 17.4187 8.67456 17.6225C8.48147 17.8263 8.32976 18.0679 8.22836 18.3333C8.12697 18.5986 8.07794 18.8823 8.08417 19.1675C8.08417 20.4032 8.98484 21.3734 10.1562 21.3734ZM1.68617 18.6656H2.89951C3.85151 18.6656 4.50017 17.9415 4.50017 17.0317C4.50414 16.8149 4.46527 16.5995 4.38595 16.3988C4.30664 16.1981 4.18855 16.0163 4.03891 15.8645C3.88927 15.7126 3.71124 15.594 3.51572 15.5158C3.3202 15.4376 3.11131 15.4016 2.90184 15.4098H1.68617V18.6656ZM2.98584 8.85974C1.48317 8.85974 0.0761719 8.30465 0.0761719 6.45837V5.81881H2.22284L2.22751 6.62248C2.22751 7.0738 2.53084 7.37065 3.03017 7.37065C3.56217 7.37065 3.74184 7.08828 3.80717 6.81073C3.86071 6.61116 3.85665 6.39976 3.79551 6.20254C3.3825 5.13098 0.538172 4.64346 0.190505 2.95164C0.114495 2.58385 0.108946 2.20421 0.174172 1.83422C0.384172 0.482689 1.54617 0 2.96951 0C4.10117 0 5.66684 0.275133 5.66684 2.07797V2.66203H3.67417V2.14796C3.67417 1.69665 3.39417 1.3998 2.92751 1.3998C2.42584 1.3998 2.25317 1.69424 2.19717 1.95971C2.16943 2.10327 2.17102 2.25125 2.20184 2.39413C2.43051 3.36192 5.46851 3.8784 5.80684 5.61125C5.83951 5.78502 5.9095 6.25323 5.8115 6.96761C5.6225 8.35051 4.43484 8.85974 2.98817 8.85974H2.98584ZM29.0118 8.8163C27.5232 8.8163 26.1325 8.26845 26.1325 6.44147V5.80674H28.2582V6.59835C28.2582 7.04483 28.5592 7.34652 29.0538 7.34652C29.5835 7.34652 29.7608 7.06414 29.8262 6.79142C29.879 6.5934 29.875 6.38374 29.8145 6.18806C29.4062 5.12615 26.5898 4.64105 26.2468 2.96371C26.17 2.60016 26.1637 2.22445 26.2282 1.85835C26.4382 0.521303 27.5932 0.041029 29.0002 0.041029C30.1202 0.041029 31.6672 0.318575 31.6672 2.10452V2.68375H29.6932V2.1721C29.6932 1.72561 29.4225 1.43117 28.9582 1.43117C28.4635 1.43117 28.2838 1.72078 28.2278 1.98626C28.2037 2.12719 28.2077 2.27174 28.2395 2.41103C28.4635 3.37158 31.4712 3.88323 31.8072 5.59677C31.8422 5.77295 31.9098 6.23633 31.8142 6.94347C31.6252 8.31189 30.4468 8.8163 29.0142 8.8163H29.0118ZM36.5345 8.78493C35.0645 8.78493 33.8792 8.2781 33.7392 6.7335C33.726 6.55443 33.7198 6.37489 33.7205 6.1953V0.255825H35.7435V6.38114C35.7435 6.48733 35.7435 6.60559 35.7622 6.69489C35.8018 6.90003 35.9768 7.29342 36.5345 7.29342C37.0898 7.29342 37.2602 6.90003 37.2998 6.69489C37.3152 6.5911 37.3215 6.48609 37.3185 6.38114V0.255825H39.3415V6.1953C39.3419 6.37569 39.3357 6.55602 39.3228 6.73591C39.1828 8.28052 38.0068 8.78493 36.5345 8.78493ZM53.2318 8.69563C51.8132 8.69563 50.5532 8.16226 50.4202 6.65386C50.4013 6.47184 50.3904 6.28904 50.3875 6.10601V2.62582C50.3875 2.4786 50.4085 2.21554 50.4248 2.07797C50.6045 0.530957 51.8132 0.0362024 53.2318 0.0362024C54.6505 0.0362024 55.8918 0.52613 56.0388 2.07797C56.0645 2.34345 56.0575 2.62582 56.0575 2.62582V2.90096H54.0415V2.43516C54.0415 2.43516 54.0415 2.24209 54.0182 2.12142C53.9808 1.94041 53.8268 1.51805 53.2132 1.51805C52.6322 1.51805 52.4618 1.91869 52.4198 2.12142C52.3964 2.25029 52.3854 2.38127 52.3872 2.51239V6.29426C52.386 6.39917 52.3922 6.50403 52.4058 6.608C52.4432 6.83004 52.6485 7.21136 53.2272 7.21136C53.8058 7.21136 54.0042 6.83004 54.0415 6.608C54.0569 6.50422 54.0631 6.39921 54.0602 6.29426V5.09478H53.2388V3.88806H56.0762V6.10842C56.0762 6.26288 56.0692 6.37873 56.0458 6.65386C55.9128 8.16226 54.6505 8.69563 53.2318 8.69563ZM7.16017 8.53876L8.64417 0.255825H12.2048L13.6818 8.53876H11.5305L10.4665 1.0233L10.4198 1.02813L9.32317 8.53876H7.16017ZM15.2802 8.53876L15.4528 0.255825H18.7195L19.7018 6.59111H19.7508L20.7355 0.255825H23.9998L24.1748 8.53876H22.1752L22.1285 1.09812H22.0795L20.7425 8.53876H18.7125L17.3755 1.10053H17.3335L17.2845 8.54117L15.2802 8.53876ZM41.5722 8.45187V0.255825H44.5425L46.3858 6.75522H46.4278L46.3182 0.255825H48.3038V8.45187H45.4548L43.4738 1.72561H43.4318L43.5415 8.45187H41.5722Z" fill="#0E1118"/>
</svg>
