<svg width="31" height="31" viewBox="0 0 31 31" fill="none" xmlns="http://www.w3.org/2000/svg">
<g id="Component 192">
<circle id="Ellipse 20" cx="15.5" cy="15.5" r="15.5" fill="#D9D9D9"/>
<path id="Vector" fill-rule="evenodd" clip-rule="evenodd" d="M15.5 9C16.1412 9 16.799 9.0165 17.4365 9.0435L18.1895 9.0795L18.9103 9.12225L19.5853 9.168L20.2017 9.216C20.8708 9.26721 21.5003 9.55271 21.9796 10.0223C22.459 10.4918 22.7573 11.1154 22.8223 11.7832L22.8522 12.102L22.9085 12.7845C22.961 13.4917 23 14.2628 23 15C23 15.7372 22.961 16.5083 22.9085 17.2155L22.8522 17.898C22.8425 18.0075 22.8328 18.1132 22.8223 18.2167C22.7573 18.8847 22.4588 19.5084 21.9794 19.9779C21.4999 20.4475 20.8702 20.733 20.201 20.784L19.586 20.8312L18.911 20.8778L18.1895 20.9205L17.4365 20.9565C16.7914 20.9845 16.1457 20.999 15.5 21C14.8543 20.999 14.2086 20.9845 13.5635 20.9565L12.8105 20.9205L12.0898 20.8778L11.4148 20.8312L10.7982 20.784C10.1292 20.7328 9.49966 20.4473 9.02035 19.9777C8.54105 19.5082 8.24268 18.8846 8.17775 18.2167L8.14775 17.898L8.0915 17.2155C8.03415 16.4784 8.00363 15.7394 8 15C8 14.2628 8.039 13.4917 8.0915 12.7845L8.14775 12.102C8.1575 11.9925 8.16725 11.8867 8.17775 11.7832C8.24266 11.1155 8.54091 10.4921 9.02007 10.0225C9.49923 9.55295 10.1286 9.26738 10.7975 9.216L11.4132 9.168L12.0883 9.12225L12.8098 9.0795L13.5627 9.0435C14.2081 9.01547 14.854 9.00097 15.5 9ZM14 13.1812V16.8188C14 17.1652 14.375 17.3812 14.675 17.2087L17.825 15.39C17.8935 15.3505 17.9505 15.2937 17.9901 15.2253C18.0297 15.1568 18.0505 15.0791 18.0505 15C18.0505 14.9209 18.0297 14.8432 17.9901 14.7747C17.9505 14.7063 17.8935 14.6495 17.825 14.61L14.675 12.792C14.6066 12.7525 14.5289 12.7317 14.4499 12.7317C14.3709 12.7317 14.2933 12.7525 14.2249 12.7921C14.1565 12.8316 14.0997 12.8885 14.0602 12.9569C14.0207 13.0253 13.9999 13.103 14 13.182V13.1812Z" fill="#1E1E1E"/>
</g>
</svg>
